<?xml version="1.0" standalone="no"?>
<!DOCTYPE svg PUBLIC "-//W3C//DTD SVG 20010904//EN"
 "http://www.w3.org/TR/2001/REC-SVG-20010904/DTD/svg10.dtd">
<svg version="1.0" xmlns="http://www.w3.org/2000/svg"
 width="2887.000000pt" height="1801.000000pt" viewBox="0 0 2887.000000 1801.000000"
 preserveAspectRatio="xMidYMid meet">
<metadata>
Created by potrace 1.15, written by Peter Selinger 2001-2017
</metadata>
<g transform="translate(0.000000,1801.000000) scale(0.100000,-0.100000)"
fill="#000000" stroke="none">
<path d="M8708 14980 c-332 -30 -553 -112 -662 -245 -48 -58 -129 -229 -155
-325 -38 -139 -41 -283 -41 -1792 l0 -1460 -92 95 c-315 321 -688 485 -1196
528 -467 39 -934 -57 -1379 -286 -295 -152 -555 -347 -839 -630 -323 -322
-536 -608 -712 -952 -245 -483 -353 -939 -353 -1498 0 -429 46 -735 168 -1110
169 -518 456 -970 892 -1405 614 -612 1279 -910 2031 -910 456 0 841 102 1148
303 114 75 265 199 322 265 28 33 40 42 40 29 0 -10 12 -53 26 -95 127 -378
540 -549 1243 -512 502 26 735 130 859 383 59 120 90 214 105 321 18 136 18
8449 -1 8586 -16 116 -58 244 -118 361 -99 192 -266 286 -594 334 -124 19
-549 28 -692 15z m-1719 -4386 c424 -62 796 -223 1131 -488 94 -75 276 -257
356 -356 488 -608 638 -1424 398 -2173 -151 -471 -455 -885 -867 -1180 -286
-205 -639 -346 -1012 -404 -156 -25 -518 -24 -670 1 -628 102 -1152 413 -1520
901 -468 622 -592 1455 -326 2191 54 149 64 171 138 309 125 229 214 348 412
545 410 408 882 622 1491 674 86 7 364 -4 469 -20z"/>
<path d="M6435 9499 c-433 -61 -804 -350 -965 -752 -68 -169 -84 -257 -84
-462 0 -192 12 -269 69 -427 118 -326 389 -598 720 -721 250 -93 543 -101 795
-21 359 113 636 370 773 717 64 165 81 256 81 452 0 138 -4 187 -22 262 -101
435 -398 763 -819 903 -161 53 -379 73 -548 49z"/>
<path d="M20835 11949 c-778 -56 -1472 -355 -2109 -908 -485 -421 -824 -916
-1011 -1477 -231 -690 -245 -1519 -38 -2203 237 -786 856 -1564 1591 -2000
388 -230 828 -394 1254 -465 217 -37 351 -47 598 -47 397 0 725 52 1100 173
806 260 1427 740 1907 1474 378 579 562 1264 539 2005 -30 983 -359 1754
-1022 2399 -628 610 -1355 957 -2182 1040 -153 15 -480 20 -627 9z m634 -1284
c393 -56 755 -207 1079 -450 119 -89 331 -295 407 -395 27 -36 52 -67 55 -70
15 -12 111 -163 162 -255 143 -255 240 -555 279 -860 14 -116 14 -424 0 -540
-88 -693 -453 -1287 -1026 -1669 -203 -136 -498 -263 -740 -321 -847 -200
-1740 85 -2298 735 -287 334 -474 736 -544 1170 -28 178 -25 560 6 733 83 468
263 839 584 1199 174 196 475 415 732 534 230 106 554 189 815 208 100 7 383
-4 489 -19z"/>
<path d="M20960 9483 c-359 -55 -661 -240 -852 -522 -137 -201 -218 -462 -218
-699 0 -160 57 -397 130 -541 332 -660 1165 -882 1776 -476 277 185 467 475
529 810 24 124 16 385 -14 500 -33 125 -90 261 -151 357 -191 304 -494 506
-840 563 -85 13 -294 19 -360 8z"/>
<path d="M15305 11830 c-312 -30 -507 -101 -627 -229 -89 -94 -167 -257 -199
-417 -9 -45 -14 -770 -19 -3009 -7 -3248 -2 -2991 -66 -3203 -80 -264 -249
-448 -537 -582 -185 -86 -289 -109 -562 -120 -216 -9 -310 -19 -425 -45 -466
-107 -617 -336 -637 -970 -17 -534 75 -896 266 -1041 95 -73 276 -145 414
-165 112 -16 623 -17 762 -1 645 74 1194 296 1735 701 807 604 1211 1348 1280
2357 14 209 14 5704 -1 5917 -12 188 -36 283 -110 435 -102 210 -258 306 -581
357 -120 19 -552 28 -693 15z"/>
<path d="M12030 11779 c-318 -24 -526 -93 -653 -217 -93 -91 -185 -312 -210
-500 -18 -141 -18 -5223 0 -5364 16 -119 51 -233 110 -356 114 -241 319 -338
783 -373 156 -12 460 -6 600 11 363 46 547 145 651 353 56 110 97 253 108 377
15 162 15 5249 0 5356 -27 196 -106 383 -201 476 -189 186 -649 278 -1188 237z"/>
</g>
</svg>
